# Blender 5.0.0
# www.blender.org
mtllib cubes_and_sun.mtl
o Cube.001
v 1.000000 1.000000 -2.500000
v 1.000000 -1.000000 -2.500000
v 1.000000 1.000000 -0.500000
v 1.000000 -1.000000 -0.500000
v -1.000000 1.000000 -2.500000
v -1.000000 -1.000000 -2.500000
v -1.000000 1.000000 -0.500000
v -1.000000 -1.000000 -0.500000
vn -0.0000 1.0000 -0.0000
vn -0.0000 -0.0000 1.0000
vn -1.0000 -0.0000 -0.0000
vn -0.0000 -1.0000 -0.0000
vn 1.0000 -0.0000 -0.0000
vn -0.0000 -0.0000 -1.0000
vt 0.875000 0.500000
vt 0.625000 0.750000
vt 0.625000 0.500000
vt 0.375000 1.000000
vt 0.375000 0.750000
vt 0.625000 0.000000
vt 0.375000 0.250000
vt 0.375000 0.000000
vt 0.375000 0.500000
vt 0.125000 0.750000
vt 0.125000 0.500000
vt 0.625000 0.250000
vt 0.875000 0.750000
vt 0.625000 1.000000
s 1
usemtl Material.001
f 5/1/1 3/2/1 1/3/1
f 3/2/2 8/4/2 4/5/2
f 7/6/3 6/7/3 8/8/3
f 2/9/4 8/10/4 6/11/4
f 1/3/5 4/5/5 2/9/5
f 5/12/6 2/9/6 6/7/6
f 5/1/1 7/13/1 3/2/1
f 3/2/2 7/14/2 8/4/2
f 7/6/3 5/12/3 6/7/3
f 2/9/4 4/5/4 8/10/4
f 1/3/5 3/2/5 4/5/5
f 5/12/6 1/3/6 2/9/6
o Cube.002
v -1.000000 -1.000000 2.500000
v -1.000000 1.000000 2.500000
v -1.000000 -1.000000 0.500000
v -1.000000 1.000000 0.500000
v 1.000000 -1.000000 2.500000
v 1.000000 1.000000 2.500000
v 1.000000 -1.000000 0.500000
v 1.000000 1.000000 0.500000
vn -1.0000 -0.0000 -0.0000
vn -0.0000 -0.0000 -1.0000
vn 1.0000 -0.0000 -0.0000
vn -0.0000 -0.0000 1.0000
vn -0.0000 -1.0000 -0.0000
vn -0.0000 1.0000 -0.0000
vt 0.625000 0.000000
vt 0.375000 0.250000
vt 0.375000 0.000000
vt 0.625000 0.250000
vt 0.375000 0.500000
vt 0.625000 0.500000
vt 0.375000 0.750000
vt 0.625000 0.750000
vt 0.375000 1.000000
vt 0.125000 0.750000
vt 0.125000 0.500000
vt 0.875000 0.500000
vt 0.625000 1.000000
vt 0.875000 0.750000
s 1
usemtl Material.002
f 10/15/7 11/16/7 9/17/7
f 12/18/8 15/19/8 11/16/8
f 16/20/9 13/21/9 15/19/9
f 14/22/10 9/23/10 13/21/10
f 15/19/11 9/24/11 11/25/11
f 12/26/12 14/22/12 16/20/12
f 10/15/7 12/18/7 11/16/7
f 12/18/8 16/20/8 15/19/8
f 16/20/9 14/22/9 13/21/9
f 14/22/10 10/27/10 9/23/10
f 15/19/11 13/21/11 9/24/11
f 12/26/12 10/28/12 14/22/12
o Sphere
v 2.000000 5.000000 0.000000
v 2.000000 4.980785 -0.195090
v 2.000000 4.923880 -0.382683
v 2.000000 4.707107 -0.707107
v 2.000000 4.382683 -0.923880
v 2.000000 4.195090 -0.980785
v 2.000000 3.804910 -0.980785
v 2.000000 3.444430 -0.831470
v 2.000000 3.168530 -0.555570
v 2.000000 3.076120 -0.382683
v 2.000000 3.019215 -0.195090
v 2.000000 3.000000 0.000000
v 2.074658 4.980785 -0.180240
v 2.146447 4.923880 -0.353553
v 2.212608 4.831470 -0.513280
v 2.270598 4.707107 -0.653281
v 2.318190 4.555570 -0.768178
v 2.353553 4.382683 -0.853553
v 2.375330 4.195090 -0.906127
v 2.382684 4.000000 -0.923880
v 2.375330 3.804910 -0.906127
v 2.353553 3.617316 -0.853553
v 2.318190 3.444430 -0.768178
v 2.270598 3.292893 -0.653281
v 2.212608 3.168530 -0.513280
v 2.146447 3.076120 -0.353553
v 2.074658 3.019215 -0.180240
v 2.137950 4.980785 -0.137950
v 2.270598 4.923880 -0.270598
v 2.392848 4.831470 -0.392847
v 2.500000 4.707107 -0.500000
v 2.587938 4.555570 -0.587938
v 2.653281 4.382683 -0.653281
v 2.693520 4.195090 -0.693520
v 2.707107 4.000000 -0.707107
v 2.693520 3.804910 -0.693520
v 2.653281 3.617316 -0.653281
v 2.587938 3.444430 -0.587938
v 2.500000 3.292893 -0.500000
v 2.392848 3.168530 -0.392847
v 2.270598 3.076120 -0.270598
v 2.137950 3.019215 -0.137950
v 2.180240 4.980785 -0.074658
v 2.353553 4.923880 -0.146447
v 2.513280 4.831470 -0.212608
v 2.653281 4.707107 -0.270598
v 2.768178 4.555570 -0.318190
v 2.853553 4.382683 -0.353553
v 2.906127 4.195090 -0.375330
v 2.923880 4.000000 -0.382683
v 2.906127 3.804910 -0.375330
v 2.853553 3.617316 -0.353553
v 2.768178 3.444430 -0.318190
v 2.653281 3.292893 -0.270598
v 2.513280 3.168530 -0.212608
v 2.353553 3.076120 -0.146447
v 2.180240 3.019215 -0.074658
v 2.195090 4.980785 0.000000
v 2.382684 4.923880 0.000000
v 2.555570 4.831470 0.000000
v 2.707107 4.707107 0.000000
v 2.831470 4.555570 0.000000
v 2.923880 4.382683 0.000000
v 2.980785 4.195090 0.000000
v 3.000000 4.000000 0.000000
v 2.980785 3.804910 0.000000
v 2.923880 3.617316 0.000000
v 2.831470 3.444430 0.000000
v 2.707107 3.292893 0.000000
v 2.555570 3.168530 0.000000
v 2.382684 3.076120 0.000000
v 2.195090 3.019215 0.000000
v 2.180240 4.980785 0.074658
v 2.353553 4.923880 0.146447
v 2.513280 4.831470 0.212608
v 2.653281 4.707107 0.270598
v 2.768178 4.555570 0.318190
v 2.853553 4.382683 0.353554
v 2.906127 4.195090 0.375330
v 2.923879 4.000000 0.382684
v 2.906127 3.804910 0.375330
v 2.853553 3.617316 0.353554
v 2.768178 3.444430 0.318190
v 2.653281 3.292893 0.270598
v 2.513280 3.168530 0.212608
v 2.353553 3.076120 0.146447
v 2.180240 3.019215 0.074658
v 2.137950 4.980785 0.137950
v 2.270598 4.923880 0.270598
v 2.392848 4.831470 0.392848
v 2.500000 4.707107 0.500000
v 2.587938 4.555570 0.587938
v 2.653281 4.382683 0.653282
v 2.693520 4.195090 0.693520
v 2.707107 4.000000 0.707107
v 2.693520 3.804910 0.693520
v 2.653281 3.617316 0.653282
v 2.587938 3.444430 0.587938
v 2.500000 3.292893 0.500000
v 2.392848 3.168530 0.392848
v 2.270598 3.076120 0.270598
v 2.137950 3.019215 0.137950
v 2.074658 4.980785 0.180240
v 2.146446 4.923880 0.353553
v 2.212607 4.831470 0.513280
v 2.270598 4.707107 0.653281
v 2.318189 4.555570 0.768178
v 2.353553 4.382683 0.853553
v 2.375330 4.195090 0.906127
v 2.382683 4.000000 0.923880
v 2.375330 3.804910 0.906127
v 2.353553 3.617316 0.853553
v 2.318189 3.444430 0.768178
v 2.270598 3.292893 0.653281
v 2.212607 3.168530 0.513280
v 2.146446 3.076120 0.353553
v 2.074658 3.019215 0.180240
v 2.000000 4.980785 0.195090
v 2.000000 4.923880 0.382683
v 2.000000 4.831470 0.555570
v 2.000000 4.707107 0.707107
v 2.000000 4.555570 0.831469
v 2.000000 4.382683 0.923879
v 2.000000 4.195090 0.980785
v 2.000000 4.000000 1.000000
v 2.000000 3.804910 0.980785
v 2.000000 3.617316 0.923879
v 2.000000 3.444430 0.831469
v 2.000000 3.292893 0.707107
v 2.000000 3.168530 0.555570
v 2.000000 3.076120 0.382683
v 2.000000 3.019215 0.195090
v 1.925342 4.980785 0.180240
v 1.853553 4.923880 0.353553
v 1.787392 4.831470 0.513280
v 1.729402 4.707107 0.653281
v 1.681810 4.555570 0.768178
v 1.646446 4.382683 0.853553
v 1.624670 4.195090 0.906127
v 1.617316 4.000000 0.923879
v 1.624670 3.804910 0.906127
v 1.646446 3.617316 0.853553
v 1.681810 3.444430 0.768178
v 1.729402 3.292893 0.653281
v 1.787392 3.168530 0.513280
v 1.853553 3.076120 0.353553
v 1.925342 3.019215 0.180240
v 1.862050 4.980785 0.137950
v 1.729402 4.923880 0.270598
v 1.607152 4.831470 0.392847
v 1.500000 4.707107 0.500000
v 1.412062 4.555570 0.587938
v 1.346718 4.382683 0.653281
v 1.306480 4.195090 0.693520
v 1.292893 4.000000 0.707106
v 1.306480 3.804910 0.693520
v 1.346718 3.617316 0.653281
v 1.412062 3.444430 0.587938
v 1.500000 3.292893 0.500000
v 1.607152 3.168530 0.392847
v 1.729402 3.076120 0.270598
v 1.862050 3.019215 0.137950
v 1.819760 4.980785 0.074658
v 1.646446 4.923880 0.146446
v 1.486720 4.831470 0.212607
v 1.346719 4.707107 0.270598
v 1.231822 4.555570 0.318189
v 1.146447 4.382683 0.353553
v 1.093873 4.195090 0.375330
v 1.076120 4.000000 0.382683
v 1.093873 3.804910 0.375330
v 1.146447 3.617316 0.353553
v 1.231822 3.444430 0.318189
v 1.346719 3.292893 0.270598
v 1.486720 3.168530 0.212607
v 1.646446 3.076120 0.146446
v 1.819760 3.019215 0.074658
v 1.804910 4.980785 -0.000000
v 1.617316 4.923880 -0.000000
v 1.444430 4.831470 -0.000000
v 1.292893 4.707107 -0.000000
v 1.168530 4.555570 -0.000000
v 1.076121 4.382683 -0.000000
v 1.019215 4.195090 -0.000000
v 1.000000 4.000000 -0.000001
v 1.019215 3.804910 -0.000000
v 1.076121 3.617316 -0.000000
v 1.168530 3.444430 -0.000000
v 1.292893 3.292893 -0.000000
v 1.444430 3.168530 -0.000000
v 1.617316 3.076120 -0.000000
v 1.804910 3.019215 -0.000000
v 1.819760 4.980785 -0.074658
v 1.646447 4.923880 -0.146447
v 1.486720 4.831470 -0.212608
v 1.346719 4.707107 -0.270598
v 1.231822 4.555570 -0.318190
v 1.146447 4.382683 -0.353554
v 1.093873 4.195090 -0.375331
v 1.076121 4.000000 -0.382684
v 1.093873 3.804910 -0.375331
v 1.146447 3.617316 -0.353554
v 1.231822 3.444430 -0.318190
v 1.346719 3.292893 -0.270598
v 1.486720 3.168530 -0.212608
v 1.646447 3.076120 -0.146447
v 1.819760 3.019215 -0.074658
v 1.862050 4.980785 -0.137950
v 1.729402 4.923880 -0.270598
v 1.607153 4.831470 -0.392848
v 1.500000 4.707107 -0.500000
v 1.412063 4.555570 -0.587938
v 1.346719 4.382683 -0.653282
v 1.306481 4.195090 -0.693520
v 1.292894 4.000000 -0.707107
v 1.306481 3.804910 -0.693520
v 1.346719 3.617316 -0.653282
v 1.412063 3.444430 -0.587938
v 1.500000 3.292893 -0.500000
v 1.607153 3.168530 -0.392848
v 1.729402 3.076120 -0.270598
v 1.862050 3.019215 -0.137950
v 1.925342 4.980785 -0.180240
v 1.853554 4.923880 -0.353554
v 1.787393 4.831470 -0.513280
v 1.729402 4.707107 -0.653281
v 1.681811 4.555570 -0.768178
v 1.646447 4.382683 -0.853553
v 1.624670 4.195090 -0.906127
v 1.617317 4.000000 -0.923880
v 1.624670 3.804910 -0.906127
v 1.646447 3.617316 -0.853553
v 1.681811 3.444430 -0.768178
v 1.729402 3.292893 -0.653281
v 1.787393 3.168530 -0.513280
v 1.853554 3.076120 -0.353554
v 1.925342 3.019215 -0.180240
v 2.000000 4.831470 -0.555570
v 2.000000 4.555570 -0.831469
v 2.000001 4.000000 -1.000000
v 2.000000 3.617316 -0.923879
v 2.000000 3.292893 -0.707107
vn 0.1520 0.6270 -0.7640
vn 0.1252 -0.7669 -0.6294
vn 0.1728 0.4643 -0.8687
vn 0.0934 -0.8781 -0.4693
vn 0.1870 0.2852 -0.9401
vn 0.0576 -0.9553 -0.2898
vn 0.1942 0.0962 -0.9762
vn 0.0195 0.9950 -0.0980
vn 0.0195 -0.9950 -0.0980
vn 0.1942 -0.0962 -0.9762
vn 0.0576 0.9553 -0.2898
vn 0.1870 -0.2852 -0.9401
vn 0.0934 0.8781 -0.4693
vn 0.1728 -0.4643 -0.8687
vn 0.1252 0.7669 -0.6294
vn 0.1520 -0.6270 -0.7640
vn 0.3565 0.7669 -0.5336
vn 0.4328 -0.6270 -0.6477
vn 0.4328 0.6270 -0.6477
vn 0.3565 -0.7669 -0.5336
vn 0.4921 0.4643 -0.7364
vn 0.2659 -0.8781 -0.3979
vn 0.5325 0.2852 -0.7969
vn 0.1642 -0.9553 -0.2457
vn 0.5530 0.0962 -0.8276
vn 0.0555 0.9950 -0.0831
vn 0.0555 -0.9950 -0.0831
vn 0.5530 -0.0962 -0.8276
vn 0.1642 0.9553 -0.2457
vn 0.5325 -0.2852 -0.7969
vn 0.2659 0.8781 -0.3979
vn 0.4921 -0.4643 -0.7364
vn 0.8276 0.0962 -0.5530
vn 0.0831 0.9950 -0.0555
vn 0.0831 -0.9950 -0.0555
vn 0.8276 -0.0962 -0.5530
vn 0.2457 0.9553 -0.1642
vn 0.7969 -0.2852 -0.5325
vn 0.3979 0.8781 -0.2659
vn 0.7364 -0.4643 -0.4921
vn 0.5336 0.7669 -0.3565
vn 0.6477 -0.6270 -0.4328
vn 0.6477 0.6270 -0.4328
vn 0.5336 -0.7669 -0.3565
vn 0.7364 0.4643 -0.4921
vn 0.3979 -0.8781 -0.2659
vn 0.7969 0.2852 -0.5325
vn 0.2457 -0.9553 -0.1642
vn 0.7640 -0.6270 -0.1520
vn 0.7640 0.6270 -0.1520
vn 0.6294 -0.7669 -0.1252
vn 0.8687 0.4643 -0.1728
vn 0.4693 -0.8781 -0.0934
vn 0.9401 0.2852 -0.1870
vn 0.2898 -0.9553 -0.0576
vn 0.9762 0.0962 -0.1942
vn 0.0980 0.9950 -0.0195
vn 0.0980 -0.9950 -0.0195
vn 0.9762 -0.0962 -0.1942
vn 0.2898 0.9553 -0.0576
vn 0.9401 -0.2852 -0.1870
vn 0.4693 0.8781 -0.0934
vn 0.8687 -0.4643 -0.1728
vn 0.6294 0.7669 -0.1252
vn 0.0980 0.9950 0.0195
vn 0.0980 -0.9950 0.0195
vn 0.9762 -0.0962 0.1942
vn 0.2898 0.9553 0.0576
vn 0.9401 -0.2852 0.1870
vn 0.4693 0.8781 0.0934
vn 0.8687 -0.4643 0.1728
vn 0.6294 0.7669 0.1252
vn 0.7640 -0.6270 0.1520
vn 0.7640 0.6270 0.1520
vn 0.6294 -0.7669 0.1252
vn 0.8687 0.4643 0.1728
vn 0.4693 -0.8781 0.0934
vn 0.9401 0.2852 0.1870
vn 0.2898 -0.9553 0.0576
vn 0.9762 0.0962 0.1942
vn 0.6477 0.6270 0.4328
vn 0.5336 -0.7669 0.3565
vn 0.7364 0.4643 0.4921
vn 0.3979 -0.8781 0.2659
vn 0.7969 0.2852 0.5325
vn 0.2457 -0.9553 0.1642
vn 0.8276 0.0962 0.5530
vn 0.0831 0.9950 0.0555
vn 0.0831 -0.9950 0.0555
vn 0.8276 -0.0962 0.5530
vn 0.2457 0.9553 0.1642
vn 0.7969 -0.2852 0.5325
vn 0.3979 0.8781 0.2659
vn 0.7364 -0.4643 0.4921
vn 0.5336 0.7669 0.3565
vn 0.6477 -0.6270 0.4328
vn 0.5530 -0.0962 0.8276
vn 0.1642 0.9553 0.2457
vn 0.5325 -0.2852 0.7969
vn 0.2659 0.8781 0.3979
vn 0.4921 -0.4643 0.7364
vn 0.3565 0.7669 0.5336
vn 0.4328 -0.6270 0.6477
vn 0.4328 0.6270 0.6477
vn 0.3565 -0.7669 0.5336
vn 0.4921 0.4643 0.7364
vn 0.2659 -0.8781 0.3979
vn 0.5325 0.2852 0.7969
vn 0.1642 -0.9553 0.2457
vn 0.5530 0.0962 0.8276
vn 0.0555 0.9950 0.0831
vn 0.0555 -0.9950 0.0831
vn 0.1252 -0.7669 0.6294
vn 0.1728 0.4643 0.8687
vn 0.0934 -0.8781 0.4693
vn 0.1870 0.2852 0.9401
vn 0.0576 -0.9553 0.2898
vn 0.1942 0.0962 0.9762
vn 0.0195 0.9950 0.0980
vn 0.0195 -0.9950 0.0980
vn 0.1942 -0.0962 0.9762
vn 0.0576 0.9553 0.2898
vn 0.1870 -0.2852 0.9401
vn 0.0934 0.8781 0.4693
vn 0.1728 -0.4643 0.8687
vn 0.1252 0.7669 0.6294
vn 0.1520 -0.6270 0.7640
vn 0.1520 0.6270 0.7640
vn -0.1870 -0.2852 0.9401
vn -0.0934 0.8781 0.4693
vn -0.1728 -0.4643 0.8687
vn -0.1252 0.7669 0.6294
vn -0.1520 -0.6270 0.7640
vn -0.1520 0.6270 0.7640
vn -0.1252 -0.7669 0.6294
vn -0.1728 0.4643 0.8687
vn -0.0934 -0.8781 0.4693
vn -0.1870 0.2852 0.9401
vn -0.0576 -0.9553 0.2898
vn -0.1942 0.0962 0.9762
vn -0.0195 0.9950 0.0980
vn -0.0195 -0.9950 0.0980
vn -0.1942 -0.0962 0.9762
vn -0.0576 0.9553 0.2898
vn -0.2659 -0.8781 0.3979
vn -0.5325 0.2852 0.7969
vn -0.1642 -0.9553 0.2457
vn -0.5530 0.0962 0.8276
vn -0.0555 0.9950 0.0831
vn -0.0555 -0.9950 0.0831
vn -0.5530 -0.0962 0.8276
vn -0.1642 0.9553 0.2457
vn -0.5325 -0.2852 0.7969
vn -0.2659 0.8781 0.3979
vn -0.4921 -0.4643 0.7364
vn -0.3565 0.7669 0.5336
vn -0.4328 -0.6270 0.6477
vn -0.4328 0.6270 0.6477
vn -0.3565 -0.7669 0.5336
vn -0.4921 0.4643 0.7364
vn -0.3979 0.8781 0.2659
vn -0.7364 -0.4643 0.4921
vn -0.5336 0.7669 0.3565
vn -0.6477 -0.6270 0.4328
vn -0.6477 0.6270 0.4328
vn -0.5336 -0.7669 0.3565
vn -0.7364 0.4643 0.4921
vn -0.3979 -0.8781 0.2659
vn -0.7969 0.2852 0.5325
vn -0.2457 -0.9553 0.1642
vn -0.8276 0.0962 0.5530
vn -0.0831 0.9950 0.0555
vn -0.0831 -0.9950 0.0555
vn -0.8276 -0.0962 0.5530
vn -0.2457 0.9553 0.1642
vn -0.7969 -0.2852 0.5325
vn -0.9401 0.2852 0.1870
vn -0.2898 -0.9553 0.0576
vn -0.9762 0.0962 0.1942
vn -0.0980 0.9950 0.0195
vn -0.0980 -0.9950 0.0195
vn -0.9762 -0.0962 0.1942
vn -0.2898 0.9553 0.0576
vn -0.9401 -0.2852 0.1870
vn -0.4693 0.8781 0.0934
vn -0.8687 -0.4643 0.1728
vn -0.6294 0.7669 0.1252
vn -0.7640 -0.6270 0.1520
vn -0.7640 0.6270 0.1520
vn -0.6294 -0.7669 0.1252
vn -0.8687 0.4643 0.1728
vn -0.4693 -0.8781 0.0934
vn -0.8687 -0.4643 -0.1728
vn -0.6294 0.7669 -0.1252
vn -0.7640 -0.6270 -0.1520
vn -0.7640 0.6270 -0.1520
vn -0.6294 -0.7669 -0.1252
vn -0.8687 0.4643 -0.1728
vn -0.4693 -0.8781 -0.0934
vn -0.9401 0.2852 -0.1870
vn -0.2898 -0.9553 -0.0576
vn -0.9762 0.0962 -0.1942
vn -0.0980 0.9950 -0.0195
vn -0.0980 -0.9950 -0.0195
vn -0.9762 -0.0962 -0.1942
vn -0.2898 0.9553 -0.0576
vn -0.9401 -0.2852 -0.1870
vn -0.4693 0.8781 -0.0934
vn -0.2457 -0.9553 -0.1642
vn -0.8276 0.0962 -0.5530
vn -0.0831 0.9950 -0.0555
vn -0.0831 -0.9950 -0.0555
vn -0.8276 -0.0962 -0.5530
vn -0.2457 0.9553 -0.1642
vn -0.7969 -0.2852 -0.5325
vn -0.3979 0.8781 -0.2659
vn -0.7364 -0.4643 -0.4921
vn -0.5336 0.7669 -0.3565
vn -0.6477 -0.6270 -0.4328
vn -0.6477 0.6270 -0.4328
vn -0.5336 -0.7669 -0.3565
vn -0.7364 0.4643 -0.4921
vn -0.3979 -0.8781 -0.2659
vn -0.7969 0.2852 -0.5325
vn -0.3565 0.7669 -0.5336
vn -0.4328 -0.6270 -0.6477
vn -0.4328 0.6270 -0.6477
vn -0.3565 -0.7669 -0.5336
vn -0.4921 0.4643 -0.7364
vn -0.2659 -0.8781 -0.3979
vn -0.5325 0.2852 -0.7969
vn -0.1642 -0.9553 -0.2457
vn -0.5530 0.0962 -0.8276
vn -0.0555 0.9950 -0.0831
vn -0.0555 -0.9950 -0.0831
vn -0.5530 -0.0962 -0.8276
vn -0.1642 0.9553 -0.2457
vn -0.5325 -0.2852 -0.7969
vn -0.2659 0.8781 -0.3979
vn -0.4921 -0.4643 -0.7364
vn -0.1942 0.0961 -0.9762
vn -0.0195 0.9950 -0.0980
vn -0.0195 -0.9950 -0.0980
vn -0.1942 -0.0962 -0.9762
vn -0.0576 0.9553 -0.2898
vn -0.1870 -0.2852 -0.9401
vn -0.0934 0.8781 -0.4693
vn -0.1728 -0.4643 -0.8687
vn -0.1252 0.7669 -0.6294
vn -0.1520 -0.6270 -0.7640
vn -0.1520 0.6270 -0.7640
vn -0.1252 -0.7669 -0.6294
vn -0.1728 0.4643 -0.8687
vn -0.0934 -0.8781 -0.4693
vn -0.1870 0.2852 -0.9401
vn -0.0576 -0.9553 -0.2898
vn -0.1942 0.0962 -0.9762
vn -0.1942 -0.0961 -0.9762
vt 0.750000 0.687500
vt 0.687500 0.750000
vt 0.687500 0.687500
vt 0.750000 0.250000
vt 0.687500 0.187500
vt 0.750000 0.187500
vt 0.687500 0.625000
vt 0.750000 0.625000
vt 0.750000 0.125000
vt 0.687500 0.125000
vt 0.687500 0.562500
vt 0.750000 0.562500
vt 0.687500 0.062500
vt 0.750000 0.062500
vt 0.750000 0.500000
vt 0.687500 0.500000
vt 0.750000 0.937500
vt 0.718750 1.000000
vt 0.687500 0.937500
vt 0.718750 0.000000
vt 0.687500 0.437500
vt 0.750000 0.437500
vt 0.687500 0.875000
vt 0.750000 0.875000
vt 0.750000 0.375000
vt 0.687500 0.375000
vt 0.750000 0.812500
vt 0.687500 0.812500
vt 0.687500 0.312500
vt 0.750000 0.312500
vt 0.750000 0.750000
vt 0.687500 0.250000
vt 0.625000 0.750000
vt 0.625000 0.250000
vt 0.625000 0.687500
vt 0.625000 0.187500
vt 0.625000 0.625000
vt 0.625000 0.125000
vt 0.625000 0.562500
vt 0.625000 0.062500
vt 0.625000 0.500000
vt 0.656250 1.000000
vt 0.625000 0.937500
vt 0.656250 0.000000
vt 0.625000 0.437500
vt 0.625000 0.875000
vt 0.625000 0.375000
vt 0.625000 0.812500
vt 0.625000 0.312500
vt 0.562500 0.500000
vt 0.593750 1.000000
vt 0.562500 0.937500
vt 0.593750 0.000000
vt 0.562500 0.062500
vt 0.562500 0.437500
vt 0.562500 0.875000
vt 0.562500 0.375000
vt 0.562500 0.812500
vt 0.562500 0.312500
vt 0.562500 0.750000
vt 0.562500 0.250000
vt 0.562500 0.687500
vt 0.562500 0.187500
vt 0.562500 0.625000
vt 0.562500 0.125000
vt 0.562500 0.562500
vt 0.500000 0.250000
vt 0.500000 0.687500
vt 0.500000 0.187500
vt 0.500000 0.625000
vt 0.500000 0.125000
vt 0.500000 0.562500
vt 0.500000 0.062500
vt 0.500000 0.500000
vt 0.531250 1.000000
vt 0.500000 0.937500
vt 0.531250 0.000000
vt 0.500000 0.437500
vt 0.500000 0.875000
vt 0.500000 0.375000
vt 0.500000 0.812500
vt 0.500000 0.312500
vt 0.500000 0.750000
vt 0.468750 1.000000
vt 0.437500 0.937500
vt 0.468750 0.000000
vt 0.437500 0.062500
vt 0.437500 0.500000
vt 0.437500 0.437500
vt 0.437500 0.875000
vt 0.437500 0.375000
vt 0.437500 0.812500
vt 0.437500 0.312500
vt 0.437500 0.750000
vt 0.437500 0.250000
vt 0.437500 0.687500
vt 0.437500 0.187500
vt 0.437500 0.625000
vt 0.437500 0.125000
vt 0.437500 0.562500
vt 0.375000 0.687500
vt 0.375000 0.187500
vt 0.375000 0.625000
vt 0.375000 0.125000
vt 0.375000 0.562500
vt 0.375000 0.062500
vt 0.375000 0.500000
vt 0.406250 1.000000
vt 0.375000 0.937500
vt 0.406250 0.000000
vt 0.375000 0.437500
vt 0.375000 0.875000
vt 0.375000 0.375000
vt 0.375000 0.812500
vt 0.375000 0.312500
vt 0.375000 0.750000
vt 0.375000 0.250000
vt 0.312500 0.437500
vt 0.312500 0.937500
vt 0.312500 0.875000
vt 0.312500 0.375000
vt 0.312500 0.812500
vt 0.312500 0.312500
vt 0.312500 0.750000
vt 0.312500 0.250000
vt 0.312500 0.687500
vt 0.312500 0.187500
vt 0.312500 0.625000
vt 0.312500 0.125000
vt 0.312500 0.562500
vt 0.312500 0.062500
vt 0.312500 0.500000
vt 0.343750 1.000000
vt 0.343750 0.000000
vt 0.250000 0.187500
vt 0.250000 0.625000
vt 0.250000 0.125000
vt 0.250000 0.562500
vt 0.250000 0.062500
vt 0.250000 0.500000
vt 0.281250 1.000000
vt 0.250000 0.937500
vt 0.281250 0.000000
vt 0.250000 0.437500
vt 0.250000 0.875000
vt 0.250000 0.375000
vt 0.250000 0.812500
vt 0.250000 0.312500
vt 0.250000 0.750000
vt 0.250000 0.250000
vt 0.250000 0.687500
vt 0.187500 0.375000
vt 0.187500 0.812500
vt 0.187500 0.312500
vt 0.187500 0.750000
vt 0.187500 0.250000
vt 0.187500 0.687500
vt 0.187500 0.187500
vt 0.187500 0.625000
vt 0.187500 0.125000
vt 0.187500 0.562500
vt 0.187500 0.062500
vt 0.187500 0.500000
vt 0.218750 1.000000
vt 0.187500 0.937500
vt 0.218750 0.000000
vt 0.187500 0.437500
vt 0.187500 0.875000
vt 0.125000 0.125000
vt 0.125000 0.562500
vt 0.125000 0.062500
vt 0.125000 0.500000
vt 0.156250 1.000000
vt 0.125000 0.937500
vt 0.156250 0.000000
vt 0.125000 0.437500
vt 0.125000 0.875000
vt 0.125000 0.375000
vt 0.125000 0.812500
vt 0.125000 0.312500
vt 0.125000 0.750000
vt 0.125000 0.250000
vt 0.125000 0.687500
vt 0.125000 0.187500
vt 0.125000 0.625000
vt 0.062500 0.812500
vt 0.062500 0.312500
vt 0.062500 0.750000
vt 0.062500 0.250000
vt 0.062500 0.687500
vt 0.062500 0.187500
vt 0.062500 0.625000
vt 0.062500 0.125000
vt 0.062500 0.562500
vt 0.062500 0.062500
vt 0.062500 0.500000
vt 0.093750 1.000000
vt 0.062500 0.937500
vt 0.093750 0.000000
vt 0.062500 0.437500
vt 0.062500 0.875000
vt 0.062500 0.375000
vt 0.000000 0.562500
vt 0.000000 0.062500
vt 0.000000 0.500000
vt 0.031250 1.000000
vt 0.000000 0.937500
vt 0.031250 0.000000
vt 0.000000 0.437500
vt 0.000000 0.875000
vt 0.000000 0.375000
vt 0.000000 0.812500
vt 0.000000 0.312500
vt 0.000000 0.750000
vt 0.000000 0.250000
vt 0.000000 0.687500
vt 0.000000 0.187500
vt 0.000000 0.625000
vt 0.000000 0.125000
vt 1.000000 0.375000
vt 0.937500 0.312500
vt 1.000000 0.312500
vt 1.000000 0.750000
vt 0.937500 0.812500
vt 0.937500 0.750000
vt 1.000000 0.250000
vt 0.937500 0.250000
vt 0.937500 0.687500
vt 1.000000 0.687500
vt 0.937500 0.187500
vt 1.000000 0.187500
vt 0.937500 0.625000
vt 1.000000 0.625000
vt 1.000000 0.125000
vt 0.937500 0.125000
vt 1.000000 0.562500
vt 0.937500 0.562500
vt 0.937500 0.062500
vt 1.000000 0.062500
vt 1.000000 0.500000
vt 0.937500 0.500000
vt 1.000000 0.937500
vt 0.968750 1.000000
vt 0.937500 0.937500
vt 0.968750 0.000000
vt 0.937500 0.437500
vt 1.000000 0.437500
vt 0.937500 0.875000
vt 1.000000 0.875000
vt 0.937500 0.375000
vt 1.000000 0.812500
vt 0.875000 0.062500
vt 0.875000 0.562500
vt 0.875000 0.500000
vt 0.906250 1.000000
vt 0.875000 0.937500
vt 0.906250 0.000000
vt 0.875000 0.437500
vt 0.875000 0.875000
vt 0.875000 0.375000
vt 0.875000 0.812500
vt 0.875000 0.312500
vt 0.875000 0.750000
vt 0.875000 0.250000
vt 0.875000 0.687500
vt 0.875000 0.187500
vt 0.875000 0.625000
vt 0.875000 0.125000
vt 0.812500 0.812500
vt 0.812500 0.750000
vt 0.812500 0.312500
vt 0.812500 0.250000
vt 0.812500 0.687500
vt 0.812500 0.187500
vt 0.812500 0.625000
vt 0.812500 0.125000
vt 0.812500 0.562500
vt 0.812500 0.062500
vt 0.812500 0.500000
vt 0.843750 1.000000
vt 0.812500 0.937500
vt 0.843750 0.000000
vt 0.812500 0.437500
vt 0.812500 0.875000
vt 0.812500 0.375000
vt 0.781250 1.000000
vt 0.781250 0.000000
s 0
usemtl Material.003
f 255/29/13 32/30/13 33/31/13
f 258/32/14 41/33/14 25/34/14
f 255/29/15 34/35/15 21/36/15
f 26/37/16 41/33/16 42/38/16
f 21/36/17 35/39/17 22/40/17
f 26/37/18 43/41/18 27/42/18
f 256/43/19 35/39/19 36/44/19
f 18/45/20 17/46/20 29/47/20
f 28/48/21 27/42/21 43/41/21
f 256/43/22 37/49/22 23/50/22
f 18/45/23 30/51/23 19/52/23
f 257/53/24 37/49/24 38/54/24
f 254/55/25 30/51/25 31/56/25
f 257/53/26 39/57/26 24/58/26
f 254/55/27 32/30/27 20/59/27
f 258/32/28 39/57/28 40/60/28
f 31/56/29 47/61/29 32/30/29
f 39/57/30 55/62/30 40/60/30
f 32/30/31 48/63/31 33/31/31
f 41/33/32 55/62/32 56/64/32
f 33/31/33 49/65/33 34/35/33
f 42/38/34 56/64/34 57/66/34
f 34/35/35 50/67/35 35/39/35
f 42/38/36 58/68/36 43/41/36
f 35/39/37 51/69/37 36/44/37
f 29/47/38 17/70/38 44/71/38
f 28/72/39 43/41/39 58/68/39
f 36/44/40 52/73/40 37/49/40
f 29/47/41 45/74/41 30/51/41
f 37/49/42 53/75/42 38/54/42
f 30/51/43 46/76/43 31/56/43
f 38/54/44 54/77/44 39/57/44
f 50/67/45 66/78/45 51/69/45
f 44/71/46 17/79/46 59/80/46
f 28/81/47 58/68/47 73/82/47
f 51/69/48 67/83/48 52/73/48
f 44/71/49 60/84/49 45/74/49
f 52/73/50 68/85/50 53/75/50
f 45/74/51 61/86/51 46/76/51
f 53/75/52 69/87/52 54/77/52
f 46/76/53 62/88/53 47/61/53
f 55/62/54 69/87/54 70/89/54
f 47/61/55 63/90/55 48/63/55
f 55/62/56 71/91/56 56/64/56
f 48/63/57 64/92/57 49/65/57
f 57/66/58 71/91/58 72/93/58
f 49/65/59 65/94/59 50/67/59
f 58/68/60 72/93/60 73/82/60
f 69/87/61 85/95/61 70/89/61
f 62/88/62 78/96/62 63/90/62
f 71/91/63 85/95/63 86/97/63
f 63/90/64 79/98/64 64/92/64
f 71/91/65 87/99/65 72/93/65
f 65/94/66 79/98/66 80/100/66
f 73/82/67 87/99/67 88/101/67
f 65/94/68 81/102/68 66/78/68
f 59/80/69 17/103/69 74/104/69
f 28/105/70 73/82/70 88/101/70
f 66/78/71 82/106/71 67/83/71
f 59/80/72 75/107/72 60/84/72
f 67/83/73 83/108/73 68/85/73
f 61/86/74 75/107/74 76/109/74
f 68/85/75 84/110/75 69/87/75
f 61/86/76 77/111/76 62/88/76
f 74/104/77 17/112/77 89/113/77
f 28/114/78 88/101/78 103/115/78
f 82/106/79 96/116/79 97/117/79
f 74/104/80 90/118/80 75/107/80
f 82/106/81 98/119/81 83/108/81
f 76/109/82 90/118/82 91/120/82
f 83/108/83 99/121/83 84/110/83
f 76/109/84 92/122/84 77/111/84
f 84/110/85 100/123/85 85/95/85
f 77/111/86 93/124/86 78/96/86
f 85/95/87 101/125/87 86/97/87
f 79/98/88 93/124/88 94/126/88
f 87/99/89 101/125/89 102/127/89
f 79/98/90 95/128/90 80/100/90
f 88/101/91 102/127/91 103/115/91
f 80/100/92 96/116/92 81/102/92
f 92/122/93 108/129/93 93/124/93
f 100/123/94 116/130/94 101/125/94
f 93/124/95 109/131/95 94/126/95
f 102/127/96 116/130/96 117/132/96
f 94/126/97 110/133/97 95/128/97
f 102/127/98 118/134/98 103/115/98
f 95/128/99 111/135/99 96/116/99
f 89/113/100 17/136/100 104/137/100
f 28/138/101 103/115/101 118/134/101
f 97/117/102 111/135/102 112/139/102
f 90/118/103 104/137/103 105/140/103
f 97/117/104 113/141/104 98/119/104
f 90/118/105 106/142/105 91/120/105
f 98/119/106 114/143/106 99/121/106
f 92/122/107 106/142/107 107/144/107
f 100/123/108 114/143/108 115/145/108
f 111/135/109 127/146/109 112/139/109
f 105/140/110 119/147/110 120/148/110
f 112/139/111 128/149/111 113/141/111
f 105/140/112 121/150/112 106/142/112
f 113/141/113 129/151/113 114/143/113
f 107/144/114 121/150/114 122/152/114
f 115/145/115 129/151/115 130/153/115
f 107/144/116 123/154/116 108/129/116
f 115/145/117 131/155/117 116/130/117
f 108/129/118 124/156/118 109/131/118
f 116/130/119 132/157/119 117/132/119
f 109/131/120 125/158/120 110/133/120
f 117/132/121 133/159/121 118/134/121
f 110/133/122 126/160/122 111/135/122
f 104/137/123 17/161/123 119/147/123
f 28/162/124 118/134/124 133/159/124
f 130/153/125 146/163/125 131/155/125
f 123/154/126 139/164/126 124/156/126
f 131/155/127 147/165/127 132/157/127
f 125/158/128 139/164/128 140/166/128
f 132/157/129 148/167/129 133/159/129
f 126/160/130 140/166/130 141/168/130
f 119/147/131 17/169/131 134/170/131
f 28/171/132 133/159/132 148/167/132
f 126/160/133 142/172/133 127/146/133
f 119/147/134 135/173/134 120/148/134
f 127/146/135 143/174/135 128/149/135
f 120/148/136 136/175/136 121/150/136
f 128/149/137 144/176/137 129/151/137
f 122/152/138 136/175/138 137/177/138
f 130/153/139 144/176/139 145/178/139
f 122/152/140 138/179/140 123/154/140
f 142/172/141 158/180/141 143/174/141
f 135/173/142 151/181/142 136/175/142
f 143/174/143 159/182/143 144/176/143
f 137/177/144 151/181/144 152/183/144
f 145/178/145 159/182/145 160/184/145
f 137/177/146 153/185/146 138/179/146
f 145/178/147 161/186/147 146/163/147
f 139/164/148 153/185/148 154/187/148
f 147/165/149 161/186/149 162/188/149
f 139/164/150 155/189/150 140/166/150
f 147/165/151 163/190/151 148/167/151
f 141/168/152 155/189/152 156/191/152
f 134/170/153 17/192/153 149/193/153
f 28/194/154 148/167/154 163/190/154
f 141/168/155 157/195/155 142/172/155
f 134/170/156 150/196/156 135/173/156
f 161/186/157 177/197/157 162/188/157
f 154/187/158 170/198/158 155/189/158
f 162/188/159 178/199/159 163/190/159
f 156/191/160 170/198/160 171/200/160
f 149/193/161 17/201/161 164/202/161
f 28/203/162 163/190/162 178/199/162
f 156/191/163 172/204/163 157/195/163
f 150/196/164 164/202/164 165/205/164
f 157/195/165 173/206/165 158/180/165
f 150/196/166 166/207/166 151/181/166
f 158/180/167 174/208/167 159/182/167
f 152/183/168 166/207/168 167/209/168
f 159/182/169 175/210/169 160/184/169
f 152/183/170 168/211/170 153/185/170
f 160/184/171 176/212/171 161/186/171
f 154/187/172 168/211/172 169/213/172
f 165/205/173 181/214/173 166/207/173
f 173/206/174 189/215/174 174/208/174
f 167/209/175 181/214/175 182/216/175
f 175/210/176 189/215/176 190/217/176
f 167/209/177 183/218/177 168/211/177
f 175/210/178 191/219/178 176/212/178
f 168/211/179 184/220/179 169/213/179
f 177/197/180 191/219/180 192/221/180
f 169/213/181 185/222/181 170/198/181
f 177/197/182 193/223/182 178/199/182
f 171/200/183 185/222/183 186/224/183
f 164/202/184 17/225/184 179/226/184
f 28/227/185 178/199/185 193/223/185
f 171/200/186 187/228/186 172/204/186
f 164/202/187 180/229/187 165/205/187
f 172/204/188 188/230/188 173/206/188
f 184/220/189 200/231/189 185/222/189
f 192/221/190 208/232/190 193/223/190
f 186/224/191 200/231/191 201/233/191
f 179/226/192 17/234/192 194/235/192
f 28/236/193 193/223/193 208/232/193
f 186/224/194 202/237/194 187/228/194
f 179/226/195 195/238/195 180/229/195
f 187/228/196 203/239/196 188/230/196
f 180/229/197 196/240/197 181/214/197
f 188/230/198 204/241/198 189/215/198
f 182/216/199 196/240/199 197/242/199
f 190/217/200 204/241/200 205/243/200
f 182/216/201 198/244/201 183/218/201
f 190/217/202 206/245/202 191/219/202
f 183/218/203 199/246/203 184/220/203
f 192/221/204 206/245/204 207/247/204
f 203/248/205 219/249/205 204/250/205
f 197/251/206 211/252/206 212/253/206
f 205/254/207 219/249/207 220/255/207
f 197/251/208 213/256/208 198/257/208
f 205/254/209 221/258/209 206/259/209
f 198/257/210 214/260/210 199/261/210
f 207/262/211 221/258/211 222/263/211
f 200/264/212 214/260/212 215/265/212
f 207/262/213 223/266/213 208/267/213
f 201/268/214 215/265/214 216/269/214
f 194/270/215 17/271/215 209/272/215
f 28/273/216 208/267/216 223/266/216
f 201/268/217 217/274/217 202/275/217
f 194/270/218 210/276/218 195/277/218
f 202/275/219 218/278/219 203/248/219
f 195/277/220 211/252/220 196/279/220
f 222/263/221 238/280/221 223/266/221
f 216/269/222 230/281/222 231/282/222
f 209/272/223 17/283/223 224/284/223
f 28/285/224 223/266/224 238/280/224
f 216/269/225 232/286/225 217/274/225
f 210/276/226 224/284/226 225/287/226
f 217/274/227 233/288/227 218/278/227
f 210/276/228 226/289/228 211/252/228
f 218/278/229 234/290/229 219/249/229
f 212/253/230 226/289/230 227/291/230
f 219/249/231 235/292/231 220/255/231
f 212/253/232 228/293/232 213/256/232
f 220/255/233 236/294/233 221/258/233
f 213/256/234 229/295/234 214/260/234
f 222/263/235 236/294/235 237/296/235
f 215/265/236 229/295/236 230/281/236
f 227/291/237 241/297/237 242/298/237
f 235/292/238 249/299/238 250/300/238
f 227/291/239 243/301/239 228/293/239
f 235/292/240 251/302/240 236/294/240
f 228/293/241 244/303/241 229/295/241
f 237/296/242 251/302/242 252/304/242
f 229/295/243 245/305/243 230/281/243
f 237/296/244 253/306/244 238/280/244
f 231/282/245 245/305/245 246/307/245
f 224/284/246 17/308/246 239/309/246
f 28/310/247 238/280/247 253/306/247
f 231/282/248 247/311/248 232/286/248
f 224/284/249 240/312/249 225/287/249
f 232/286/250 248/313/250 233/288/250
f 225/287/251 241/297/251 226/289/251
f 233/288/252 249/299/252 234/290/252
f 246/307/253 22/40/253 256/43/253
f 239/309/254 17/314/254 18/45/254
f 28/315/255 253/306/255 27/42/255
f 246/307/256 23/50/256 247/311/256
f 240/312/257 18/45/257 19/52/257
f 248/313/258 23/50/258 257/53/258
f 241/297/259 19/52/259 254/55/259
f 248/313/260 24/58/260 249/299/260
f 241/297/261 20/59/261 242/298/261
f 250/300/262 24/58/262 258/32/262
f 243/301/263 20/59/263 255/29/263
f 250/300/264 25/34/264 251/302/264
f 243/301/265 21/36/265 244/303/265
f 252/304/266 25/34/266 26/37/266
f 245/305/267 21/36/267 22/40/267
f 252/304/268 27/42/268 253/306/268
f 255/29/13 20/59/13 32/30/13
f 258/32/14 40/60/14 41/33/14
f 255/29/15 33/31/15 34/35/15
f 26/37/16 25/34/16 41/33/16
f 21/36/17 34/35/17 35/39/17
f 26/37/18 42/38/18 43/41/18
f 256/43/19 22/40/19 35/39/19
f 256/43/22 36/44/22 37/49/22
f 18/45/23 29/47/23 30/51/23
f 257/53/24 23/50/24 37/49/24
f 254/55/25 19/52/25 30/51/25
f 257/53/26 38/54/26 39/57/26
f 254/55/27 31/56/27 32/30/27
f 258/32/28 24/58/28 39/57/28
f 31/56/29 46/76/29 47/61/29
f 39/57/30 54/77/30 55/62/30
f 32/30/31 47/61/31 48/63/31
f 41/33/32 40/60/32 55/62/32
f 33/31/33 48/63/33 49/65/33
f 42/38/34 41/33/34 56/64/34
f 34/35/35 49/65/35 50/67/35
f 42/38/36 57/66/36 58/68/36
f 35/39/37 50/67/37 51/69/37
f 36/44/40 51/69/40 52/73/40
f 29/47/41 44/71/41 45/74/41
f 37/49/42 52/73/42 53/75/42
f 30/51/43 45/74/43 46/76/43
f 38/54/44 53/75/44 54/77/44
f 50/67/45 65/94/45 66/78/45
f 51/69/48 66/78/48 67/83/48
f 44/71/49 59/80/49 60/84/49
f 52/73/50 67/83/50 68/85/50
f 45/74/51 60/84/51 61/86/51
f 53/75/52 68/85/52 69/87/52
f 46/76/53 61/86/53 62/88/53
f 55/62/54 54/77/54 69/87/54
f 47/61/55 62/88/55 63/90/55
f 55/62/56 70/89/56 71/91/56
f 48/63/57 63/90/57 64/92/57
f 57/66/58 56/64/58 71/91/58
f 49/65/59 64/92/59 65/94/59
f 58/68/60 57/66/60 72/93/60
f 69/87/61 84/110/61 85/95/61
f 62/88/62 77/111/62 78/96/62
f 71/91/63 70/89/63 85/95/63
f 63/90/64 78/96/64 79/98/64
f 71/91/65 86/97/65 87/99/65
f 65/94/66 64/92/66 79/98/66
f 73/82/67 72/93/67 87/99/67
f 65/94/68 80/100/68 81/102/68
f 66/78/71 81/102/71 82/106/71
f 59/80/72 74/104/72 75/107/72
f 67/83/73 82/106/73 83/108/73
f 61/86/74 60/84/74 75/107/74
f 68/85/75 83/108/75 84/110/75
f 61/86/76 76/109/76 77/111/76
f 82/106/79 81/102/79 96/116/79
f 74/104/80 89/113/80 90/118/80
f 82/106/81 97/117/81 98/119/81
f 76/109/82 75/107/82 90/118/82
f 83/108/83 98/119/83 99/121/83
f 76/109/84 91/120/84 92/122/84
f 84/110/85 99/121/85 100/123/85
f 77/111/86 92/122/86 93/124/86
f 85/95/87 100/123/87 101/125/87
f 79/98/88 78/96/88 93/124/88
f 87/99/89 86/97/89 101/125/89
f 79/98/90 94/126/90 95/128/90
f 88/101/91 87/99/91 102/127/91
f 80/100/92 95/128/92 96/116/92
f 92/122/93 107/144/93 108/129/93
f 100/123/94 115/145/94 116/130/94
f 93/124/95 108/129/95 109/131/95
f 102/127/96 101/125/96 116/130/96
f 94/126/97 109/131/97 110/133/97
f 102/127/98 117/132/98 118/134/98
f 95/128/99 110/133/99 111/135/99
f 97/117/102 96/116/102 111/135/102
f 90/118/103 89/113/103 104/137/103
f 97/117/104 112/139/104 113/141/104
f 90/118/105 105/140/105 106/142/105
f 98/119/106 113/141/106 114/143/106
f 92/122/107 91/120/107 106/142/107
f 100/123/108 99/121/108 114/143/108
f 111/135/109 126/160/109 127/146/109
f 105/140/110 104/137/110 119/147/110
f 112/139/111 127/146/111 128/149/111
f 105/140/112 120/148/112 121/150/112
f 113/141/113 128/149/113 129/151/113
f 107/144/114 106/142/114 121/150/114
f 115/145/115 114/143/115 129/151/115
f 107/144/116 122/152/116 123/154/116
f 115/145/117 130/153/117 131/155/117
f 108/129/118 123/154/118 124/156/118
f 116/130/119 131/155/119 132/157/119
f 109/131/120 124/156/120 125/158/120
f 117/132/121 132/157/121 133/159/121
f 110/133/122 125/158/122 126/160/122
f 130/153/125 145/178/125 146/163/125
f 123/154/126 138/179/126 139/164/126
f 131/155/127 146/163/127 147/165/127
f 125/158/128 124/156/128 139/164/128
f 132/157/129 147/165/129 148/167/129
f 126/160/130 125/158/130 140/166/130
f 126/160/133 141/168/133 142/172/133
f 119/147/134 134/170/134 135/173/134
f 127/146/135 142/172/135 143/174/135
f 120/148/136 135/173/136 136/175/136
f 128/149/137 143/174/137 144/176/137
f 122/152/138 121/150/138 136/175/138
f 130/153/139 129/151/139 144/176/139
f 122/152/140 137/177/140 138/179/140
f 142/172/141 157/195/141 158/180/141
f 135/173/142 150/196/142 151/181/142
f 143/174/143 158/180/143 159/182/143
f 137/177/144 136/175/144 151/181/144
f 145/178/145 144/176/145 159/182/145
f 137/177/146 152/183/146 153/185/146
f 145/178/147 160/184/147 161/186/147
f 139/164/148 138/179/148 153/185/148
f 147/165/149 146/163/149 161/186/149
f 139/164/150 154/187/150 155/189/150
f 147/165/151 162/188/151 163/190/151
f 141/168/152 140/166/152 155/189/152
f 141/168/155 156/191/155 157/195/155
f 134/170/156 149/193/156 150/196/156
f 161/186/157 176/212/157 177/197/157
f 154/187/158 169/213/158 170/198/158
f 162/188/159 177/197/159 178/199/159
f 156/191/160 155/189/160 170/198/160
f 156/191/163 171/200/163 172/204/163
f 150/196/164 149/193/164 164/202/164
f 157/195/165 172/204/165 173/206/165
f 150/196/166 165/205/166 166/207/166
f 158/180/167 173/206/167 174/208/167
f 152/183/168 151/181/168 166/207/168
f 159/182/169 174/208/169 175/210/169
f 152/183/170 167/209/170 168/211/170
f 160/184/171 175/210/171 176/212/171
f 154/187/172 153/185/172 168/211/172
f 165/205/173 180/229/173 181/214/173
f 173/206/174 188/230/174 189/215/174
f 167/209/175 166/207/175 181/214/175
f 175/210/176 174/208/176 189/215/176
f 167/209/177 182/216/177 183/218/177
f 175/210/178 190/217/178 191/219/178
f 168/211/179 183/218/179 184/220/179
f 177/197/180 176/212/180 191/219/180
f 169/213/181 184/220/181 185/222/181
f 177/197/182 192/221/182 193/223/182
f 171/200/183 170/198/183 185/222/183
f 171/200/186 186/224/186 187/228/186
f 164/202/187 179/226/187 180/229/187
f 172/204/188 187/228/188 188/230/188
f 184/220/189 199/246/189 200/231/189
f 192/221/190 207/247/190 208/232/190
f 186/224/191 185/222/191 200/231/191
f 186/224/194 201/233/194 202/237/194
f 179/226/195 194/235/195 195/238/195
f 187/228/196 202/237/196 203/239/196
f 180/229/197 195/238/197 196/240/197
f 188/230/198 203/239/198 204/241/198
f 182/216/199 181/214/199 196/240/199
f 190/217/200 189/215/200 204/241/200
f 182/216/201 197/242/201 198/244/201
f 190/217/202 205/243/202 206/245/202
f 183/218/203 198/244/203 199/246/203
f 192/221/204 191/219/204 206/245/204
f 203/248/205 218/278/205 219/249/205
f 197/251/206 196/279/206 211/252/206
f 205/254/207 204/250/207 219/249/207
f 197/251/208 212/253/208 213/256/208
f 205/254/209 220/255/209 221/258/209
f 198/257/210 213/256/210 214/260/210
f 207/262/211 206/259/211 221/258/211
f 200/264/212 199/261/212 214/260/212
f 207/262/213 222/263/213 223/266/213
f 201/268/214 200/264/214 215/265/214
f 201/268/217 216/269/217 217/274/217
f 194/270/218 209/272/218 210/276/218
f 202/275/219 217/274/219 218/278/219
f 195/277/220 210/276/220 211/252/220
f 222/263/221 237/296/221 238/280/221
f 216/269/222 215/265/222 230/281/222
f 216/269/225 231/282/225 232/286/225
f 210/276/226 209/272/226 224/284/226
f 217/274/227 232/286/227 233/288/227
f 210/276/228 225/287/228 226/289/228
f 218/278/229 233/288/229 234/290/229
f 212/253/230 211/252/230 226/289/230
f 219/249/231 234/290/231 235/292/231
f 212/253/232 227/291/232 228/293/232
f 220/255/233 235/292/233 236/294/233
f 213/256/234 228/293/234 229/295/234
f 222/263/235 221/258/235 236/294/235
f 215/265/236 214/260/236 229/295/236
f 227/291/237 226/289/237 241/297/237
f 235/292/238 234/290/238 249/299/238
f 227/291/239 242/298/239 243/301/239
f 235/292/240 250/300/240 251/302/240
f 228/293/241 243/301/241 244/303/241
f 237/296/242 236/294/242 251/302/242
f 229/295/243 244/303/243 245/305/243
f 237/296/244 252/304/244 253/306/244
f 231/282/245 230/281/245 245/305/245
f 231/282/248 246/307/248 247/311/248
f 224/284/249 239/309/249 240/312/249
f 232/286/250 247/311/250 248/313/250
f 225/287/251 240/312/251 241/297/251
f 233/288/252 248/313/252 249/299/252
f 246/307/269 245/305/269 22/40/269
f 246/307/270 256/43/270 23/50/270
f 240/312/257 239/309/257 18/45/257
f 248/313/258 247/311/258 23/50/258
f 241/297/259 240/312/259 19/52/259
f 248/313/260 257/53/260 24/58/260
f 241/297/261 254/55/261 20/59/261
f 250/300/262 249/299/262 24/58/262
f 243/301/263 242/298/263 20/59/263
f 250/300/264 258/32/264 25/34/264
f 243/301/265 255/29/265 21/36/265
f 252/304/266 251/302/266 25/34/266
f 245/305/267 244/303/267 21/36/267
f 252/304/268 26/37/268 27/42/268
